<?xml version="1.0"?>
<svg xmlns="http://www.w3.org/2000/svg" id="icons" enable-background="new 0 0 64 64" height="512px" viewBox="0 0 64 64" width="512px" class=""><g><g><g><path d="m10.996 57.998c-.553 0-1-.447-1-1 0-2.757 2.243-5 5-5 .553 0 1 .447 1 1s-.447 1-1 1c-1.654 0-3 1.346-3 3 0 .553-.447 1-1 1z" data-original="#000000" class="active-path" data-old_color="#000000" fill="#8F8F8F"/></g><g><path d="m53.004 57.998c-.553 0-1-.447-1-1 0-1.654-1.346-3-3-3-.553 0-1-.447-1-1s.447-1 1-1c2.757 0 5 2.243 5 5 0 .553-.447 1-1 1z" data-original="#000000" class="active-path" data-old_color="#000000" fill="#8F8F8F"/></g><g><path d="m49.004 53.998h-34.008c-.553 0-1-.447-1-1s.447-1 1-1h34.008c.553 0 1 .447 1 1s-.447 1-1 1z" data-original="#000000" class="active-path" data-old_color="#000000" fill="#8F8F8F"/></g><g><path d="m53.004 61.997c-.553 0-1-.447-1-1v-3.999c0-.553.447-1 1-1s1 .447 1 1v3.999c0 .553-.447 1-1 1z" data-original="#000000" class="active-path" data-old_color="#000000" fill="#8F8F8F"/></g><g><path d="m51.002 63.999h-38.004c-.553 0-1-.447-1-1s.447-1 1-1h38.004c.553 0 1 .447 1 1s-.447 1-1 1z" data-original="#000000" class="active-path" data-old_color="#000000" fill="#8F8F8F"/></g><g><path d="m10.996 61.999c-.553 0-1-.447-1-1v-4.001c0-.553.447-1 1-1s1 .447 1 1v4.001c0 .553-.447 1-1 1z" data-original="#000000" class="active-path" data-old_color="#000000" fill="#8F8F8F"/></g><g><path d="m12.998 64.001c-1.655 0-3.002-1.347-3.002-3.002 0-.553.447-1 1-1s1 .447 1 1 .449 1.002 1.002 1.002 1 .447 1 1-.447 1-1 1z" data-original="#000000" class="active-path" data-old_color="#000000" fill="#8F8F8F"/></g><g><path d="m51.002 63.999c-.553 0-1-.447-1-1s.447-1 1-1 1.002-.449 1.002-1.002.447-1 1-1 1 .447 1 1c0 1.655-1.347 3.002-3.002 3.002z" data-original="#000000" class="active-path" data-old_color="#000000" fill="#8F8F8F"/></g><g><path d="m49 54.009c-.553 0-1-.447-1-1v-35.004c0-.553.447-1 1-1s1 .447 1 1v35.004c0 .553-.447 1-1 1z" data-original="#000000" class="active-path" data-old_color="#000000" fill="#8F8F8F"/></g><g><path d="m14.998 54.009c-.553 0-1-.447-1-1v-35.005c0-.553.447-1 1-1s1 .447 1 1v35.005c0 .553-.447 1-1 1z" data-original="#000000" class="active-path" data-old_color="#000000" fill="#8F8F8F"/></g><g><path d="m14.998 19.004c-.553 0-1-.447-1-1 0-2.204 1.794-3.997 3.998-3.997.553 0 1 .447 1 1s-.447 1-1 1c-1.102 0-1.998.896-1.998 1.997 0 .553-.447 1-1 1z" data-original="#000000" class="active-path" data-old_color="#000000" fill="#8F8F8F"/></g><g><path d="m49 19.005c-.553 0-1-.447-1-1 0-1.104-.899-2.003-2.004-2.003-.553 0-1-.447-1-1s.447-1 1-1c2.208 0 4.004 1.796 4.004 4.003 0 .553-.447 1-1 1z" data-original="#000000" class="active-path" data-old_color="#000000" fill="#8F8F8F"/></g><g><path d="m45.996 16.007h-28c-.553 0-1-.447-1-1s.447-1 1-1h28c.553 0 1 .447 1 1s-.447 1-1 1z" data-original="#000000" class="active-path" data-old_color="#000000" fill="#8F8F8F"/></g><g><path d="m40.998 16.009c-.553 0-1-.447-1-1v-12.01c0-.552-.448-1-1-1h-14.006c-.552 0-1 .448-1 1v12.01c0 .553-.447 1-1 1s-1-.447-1-1v-12.01c0-1.654 1.346-3 3-3h14.006c1.654 0 3 1.346 3 3v12.01c0 .553-.447 1-1 1z" data-original="#000000" class="active-path" data-old_color="#000000" fill="#8F8F8F"/></g><g><path d="m41.996 19.998c-.553 0-1-.447-1-1 0-2.757 2.243-4.999 5-4.999.553 0 1 .447 1 1s-.447 1-1 1c-1.654 0-3 1.346-3 2.999 0 .553-.447 1-1 1z" data-original="#000000" class="active-path" data-old_color="#000000" fill="#8F8F8F"/></g><g><path d="m45.996 54.001c-2.757 0-5-2.242-5-4.999 0-.553.447-1 1-1s1 .447 1 1c0 1.653 1.346 2.999 3 2.999.553 0 1 .447 1 1s-.447 1-1 1z" data-original="#000000" class="active-path" data-old_color="#000000" fill="#8F8F8F"/></g><g><path d="m41.996 50.002c-.553 0-1-.447-1-1v-30.004c0-.553.447-1 1-1s1 .447 1 1v30.004c0 .553-.447 1-1 1z" data-original="#000000" class="active-path" data-old_color="#000000" fill="#8F8F8F"/></g><g><path d="m21.996 19.998c-.553 0-1-.447-1-1 0-1.653-1.345-2.999-2.998-2.999-.553 0-1-.447-1-1s.447-1 1-1c2.756 0 4.998 2.242 4.998 4.999 0 .553-.447 1-1 1z" data-original="#000000" class="active-path" data-old_color="#000000" fill="#8F8F8F"/></g><g><path d="m17.998 54.001c-.553 0-1-.447-1-1s.447-1 1-1c1.653 0 2.998-1.346 2.998-2.999 0-.553.447-1 1-1s1 .447 1 1c0 2.757-2.242 4.999-4.998 4.999z" data-original="#000000" class="active-path" data-old_color="#000000" fill="#8F8F8F"/></g><g><path d="m21.996 50.002c-.553 0-1-.447-1-1v-30.004c0-.553.447-1 1-1s1 .447 1 1v30.004c0 .553-.447 1-1 1z" data-original="#000000" class="active-path" data-old_color="#000000" fill="#8F8F8F"/></g><g><path d="m41.996 46h-20c-.553 0-1-.447-1-1s.447-1 1-1h20c.553 0 1 .447 1 1s-.447 1-1 1z" data-original="#000000" class="active-path" data-old_color="#000000" fill="#8F8F8F"/></g><g><path d="m41.996 43h-20c-.553 0-1-.447-1-1s.447-1 1-1h20c.553 0 1 .447 1 1s-.447 1-1 1z" data-original="#000000" class="active-path" data-old_color="#000000" fill="#8F8F8F"/></g><g><path d="m41.996 40h-20c-.553 0-1-.447-1-1s.447-1 1-1h20c.553 0 1 .447 1 1s-.447 1-1 1z" data-original="#000000" class="active-path" data-old_color="#000000" fill="#8F8F8F"/></g><g><path d="m41.996 37h-20c-.553 0-1-.447-1-1s.447-1 1-1h20c.553 0 1 .447 1 1s-.447 1-1 1z" data-original="#000000" class="active-path" data-old_color="#000000" fill="#8F8F8F"/></g><g><path d="m41.996 34h-20c-.553 0-1-.447-1-1s.447-1 1-1h20c.553 0 1 .447 1 1s-.447 1-1 1z" data-original="#000000" class="active-path" data-old_color="#000000" fill="#8F8F8F"/></g><g><path d="m41.996 31h-20c-.553 0-1-.447-1-1s.447-1 1-1h20c.553 0 1 .447 1 1s-.447 1-1 1z" data-original="#000000" class="active-path" data-old_color="#000000" fill="#8F8F8F"/></g><g><path d="m41.996 28h-20c-.553 0-1-.447-1-1s.447-1 1-1h20c.553 0 1 .447 1 1s-.447 1-1 1z" data-original="#000000" class="active-path" data-old_color="#000000" fill="#8F8F8F"/></g><g><path d="m41.996 25h-20c-.553 0-1-.447-1-1s.447-1 1-1h20c.553 0 1 .447 1 1s-.447 1-1 1z" data-original="#000000" class="active-path" data-old_color="#000000" fill="#8F8F8F"/></g></g></g> </svg>
