<svg id="Capa_1" enable-background="new 0 0 512 512" height="512" viewBox="0 0 512 512" width="512" xmlns="http://www.w3.org/2000/svg" xmlns:xlink="http://www.w3.org/1999/xlink"><linearGradient id="SVGID_1_" gradientUnits="userSpaceOnUse" x1="256" x2="256" y1="391" y2="121"><stop offset="0" stop-color="#5558ff"/><stop offset="1" stop-color="#00c0ff"/></linearGradient><g><g><path d="m467 211h-81.973l-55.547-83.32c-2.781-4.173-7.465-6.68-12.48-6.68h-212c-6.456 0-12.188 4.131-14.23 10.257l-26.582 79.743h-49.188c-8.284 0-15 6.716-15 15v120c0 8.284 6.716 15 15 15h77.58c6.192 17.458 22.865 30 42.42 30s36.228-12.542 42.42-30h157.16c6.192 17.458 22.865 30 42.42 30s36.228-12.542 42.42-30h77.58c8.284 0 15-6.716 15-15v-90c0-24.813-20.187-45-45-45zm-257-60h98.973l40 60h-138.973zm-94.188 0h64.188v60h-84.188zm19.188 210c-8.271 0-15-6.729-15-15s6.729-15 15-15 15 6.729 15 15-6.729 15-15 15zm242 0c-8.271 0-15-6.729-15-15s6.729-15 15-15 15 6.729 15 15-6.729 15-15 15zm105-90h-15c-8.284 0-15 6.716-15 15s6.716 15 15 15h15v30h-62.58c-6.192-17.458-22.865-30-42.42-30s-36.228 12.542-42.42 30h-157.16c-6.192-17.458-22.865-30-42.42-30s-36.228 12.542-42.42 30h-62.58v-30h15c8.284 0 15-6.716 15-15s-6.716-15-15-15h-15v-30h437c8.271 0 15 6.729 15 15z" fill="url(#SVGID_1_)"/></g></g></svg>