<?xml version="1.0"?>
<svg xmlns="http://www.w3.org/2000/svg" id="_x31__x2C_5" enable-background="new 0 0 24 24" height="512px" viewBox="0 0 24 24" width="512px" class=""><g><path d="m12 2.75c-5.1 0-9.25 4.15-9.25 9.25s4.15 9.25 9.25 9.25 9.25-4.15 9.25-9.25-4.15-9.25-9.25-9.25z" fill="#eceff1" data-original="#ECEFF1" class=""/><path d="m8.75 16.25c-.183 0-.366-.066-.51-.2-.304-.282-.321-.757-.04-1.06l6.5-7c.282-.304.757-.32 1.06-.04.304.282.321.757.04 1.06l-6.5 7c-.148.159-.349.24-.55.24z" data-original="#000000" class="active-path" style="fill:#226172" data-old_color="#000000"/><path d="m15.25 16.25c-.201 0-.402-.081-.55-.24l-6.5-7c-.282-.303-.264-.778.04-1.06.303-.281.778-.264 1.06.04l6.5 7c.282.303.264.778-.04 1.06-.144.134-.327.2-.51.2z" data-original="#000000" class="active-path" style="fill:#226172" data-old_color="#000000"/><path d="m12 22c-5.514 0-10-4.486-10-10s4.486-10 10-10 10 4.486 10 10-4.486 10-10 10zm0-18.5c-4.687 0-8.5 3.813-8.5 8.5s3.813 8.5 8.5 8.5 8.5-3.813 8.5-8.5-3.813-8.5-8.5-8.5z" data-original="#000000" class="active-path" style="fill:#226172" data-old_color="#000000"/><path d="m12 4.435c-.414 0-.75-.336-.75-.75v-2.935c0-.414.336-.75.75-.75s.75.336.75.75v2.935c0 .414-.336.75-.75.75z" data-original="#000000" class="active-path" style="fill:#226172" data-old_color="#000000"/><path d="m12 24c-.414 0-.75-.336-.75-.75v-2.935c0-.414.336-.75.75-.75s.75.336.75.75v2.935c0 .414-.336.75-.75.75z" data-original="#000000" class="active-path" style="fill:#226172" data-old_color="#000000"/><path d="m23.25 12.75h-2.935c-.414 0-.75-.336-.75-.75s.336-.75.75-.75h2.935c.414 0 .75.336.75.75s-.336.75-.75.75z" data-original="#000000" class="active-path" style="fill:#226172" data-old_color="#000000"/><path d="m3.685 12.75h-2.935c-.414 0-.75-.336-.75-.75s.336-.75.75-.75h2.935c.414 0 .75.336.75.75s-.336.75-.75.75z" data-original="#000000" class="active-path" style="fill:#226172" data-old_color="#000000"/></g> </svg>
